<svg id="mo2w35ew3tccwgak" viewBox="0 0 128 55" xmlns="http://www.w3.org/2000/svg" xmlns:xlink="http://www.w3.org/1999/xlink"><g id="mo2w35ew3tccwgak_translate"><g transform="matrix(1,0,0,1,0,0)"><g id="mo2w35ew3tccwgak" opacity="1" style="mix-blend-mode:normal"><g><g><g id="mo2w35f0bdfqoduv_translate"><g transform="matrix(1,0,0,1,0,0)"><g id="mo2w35f0bdfqoduv" opacity="1" style="mix-blend-mode:normal"><g><g><path id="mo2w35f0bdfqoduv_fill_path" d="M5.504,32v-3.552h5.856c1.0453,0 1.856,-0.32 2.432,-0.96c0.5973,-0.64 0.896,-1.3973 0.896,-2.272c0,-0.5973 -0.128,-1.1413 -0.384,-1.632c-0.256,-0.4907 -0.64,-0.8747 -1.152,-1.152c-0.4907,-0.2987 -1.088,-0.448 -1.792,-0.448h-5.856v-3.52h5.376c0.896,0 1.6107,-0.224 2.144,-0.672c0.5547,-0.448 0.832,-1.12 0.832,-2.016c0,-0.9173 -0.2773,-1.6 -0.832,-2.048c-0.5333,-0.448 -1.248,-0.672 -2.144,-0.672h-5.376v-3.552h5.888c1.4933,0 2.7413,0.27733 3.744,0.832c1.024,0.5333 1.792,1.248 2.304,2.144c0.512,0.8747 0.768,1.8347 0.768,2.88c0,1.28 -0.3947,2.3893 -1.184,3.328c-0.768,0.9173 -1.8987,1.6 -3.392,2.048l0.192,-1.408c1.664,0.4693 2.944,1.248 3.84,2.336c0.9173,1.0667 1.376,2.3573 1.376,3.872c0,1.1947 -0.2987,2.2827 -0.896,3.264c-0.576,0.96 -1.4293,1.7387 -2.56,2.336c-1.1093,0.576 -2.464,0.864 -4.064,0.864zM2.304,32v-22.496h4.32v22.496zM25.6915,23.648v-3.552h5.216c0.6827,0 1.3013,-0.1387 1.856,-0.416c0.5547,-0.2773 0.992,-0.672 1.312,-1.184c0.32,-0.5333 0.48,-1.1733 0.48,-1.92c0,-0.7253 -0.16,-1.3547 -0.48,-1.888c-0.32,-0.5333 -0.7573,-0.9387 -1.312,-1.216c-0.5547,-0.2773 -1.1733,-0.416 -1.856,-0.416h-5.216v-3.552h5.664c1.4293,0 2.7093,0.288 3.84,0.864c1.152,0.576 2.0587,1.3973 2.72,2.464c0.6613,1.0453 0.992,2.2933 0.992,3.744c0,1.4507 -0.3307,2.7093 -0.992,3.776c-0.6613,1.0453 -1.568,1.856 -2.72,2.432c-1.1307,0.576 -2.4107,0.864 -3.84,0.864zM22.4915,32v-22.496h4.352v22.496zM41.9915,32v-22.496h3.072l9.12,14.592h-1.76l9.088,-14.592h3.072v22.496h-4.32v-15.04l0.832,0.256l-6.336,10.176h-2.944l-6.336,-10.176l0.864,-0.256v15.04zM75.2695,32.32c-1.8133,0 -3.3707,-0.3093 -4.672,-0.928c-1.28,-0.6187 -2.4427,-1.5467 -3.488,-2.784l2.88,-2.88c0.6613,0.8747 1.4293,1.5573 2.304,2.048c0.8747,0.4693 1.9413,0.704 3.2,0.704c1.1307,0 2.0267,-0.224 2.688,-0.672c0.6827,-0.448 1.024,-1.0667 1.024,-1.856c0,-0.6827 -0.192,-1.2373 -0.576,-1.664c-0.384,-0.4267 -0.896,-0.7893 -1.536,-1.088c-0.6187,-0.2987 -1.312,-0.5653 -2.08,-0.8c-0.7467,-0.256 -1.504,-0.544 -2.272,-0.864c-0.7467,-0.32 -1.44,-0.7147 -2.08,-1.184c-0.6187,-0.4907 -1.12,-1.1093 -1.504,-1.856c-0.384,-0.768 -0.576,-1.728 -0.576,-2.88c0,-1.3653 0.3307,-2.528 0.992,-3.488c0.6613,-0.96 1.568,-1.696 2.72,-2.208c1.152,-0.512 2.4533,-0.768 3.904,-0.768c1.536,0 2.9227,0.288 4.16,0.864c1.2373,0.576 2.2507,1.3227 3.04,2.24l-2.88,2.88c-0.6613,-0.7253 -1.344,-1.2587 -2.048,-1.6c-0.6827,-0.3413 -1.4613,-0.512 -2.336,-0.512c-1.0027,0 -1.792,0.192 -2.368,0.576c-0.576,0.384 -0.864,0.9387 -0.864,1.664c0,0.6187 0.192,1.12 0.576,1.504c0.384,0.384 0.8853,0.7147 1.504,0.992c0.64,0.2773 1.3333,0.544 2.08,0.8c0.768,0.256 1.5253,0.544 2.272,0.864c0.768,0.32 1.4613,0.736 2.08,1.248c0.64,0.512 1.152,1.1733 1.536,1.984c0.384,0.7893 0.576,1.7707 0.576,2.944c0,2.0907 -0.736,3.7333 -2.208,4.928c-1.472,1.1947 -3.488,1.792 -6.048,1.792zM93.6513,32.32c-1.5574,0 -2.9654,-0.352 -4.224,-1.056c-1.2374,-0.7253 -2.2294,-1.696 -2.9761,-2.912c-0.7253,-1.2373 -1.0879,-2.6133 -1.0879,-4.128c0,-1.5147 0.3626,-2.8693 1.0879,-4.064c0.7254,-1.216 1.7174,-2.176 2.9761,-2.88c1.2586,-0.7253 2.656,-1.088 4.1919,-1.088c1.5787,0 2.9867,0.3627 4.224,1.088c1.2587,0.704 2.2508,1.664 2.9758,2.88c0.726,1.1947 1.088,2.5493 1.088,4.064c0,1.5147 -0.362,2.8907 -1.088,4.128c-0.725,1.216 -1.7171,2.1867 -2.9758,2.912c-1.2373,0.704 -2.6346,1.056 -4.1919,1.056zM93.6192,28.416c0.7894,0 1.4827,-0.1707 2.08,-0.512c0.6187,-0.3627 1.088,-0.8533 1.4081,-1.472c0.3413,-0.64 0.5119,-1.3653 0.5119,-2.176c0,-0.8107 -0.1706,-1.5253 -0.5119,-2.144c-0.3414,-0.6187 -0.8107,-1.0987 -1.4081,-1.44c-0.5973,-0.3627 -1.2906,-0.544 -2.08,-0.544c-0.768,0 -1.4506,0.1813 -2.0479,0.544c-0.5974,0.3413 -1.0667,0.8213 -1.408,1.44c-0.3414,0.6187 -0.512,1.3333 -0.512,2.144c0,0.8107 0.1706,1.536 0.512,2.176c0.3413,0.6187 0.8106,1.1093 1.408,1.472c0.5973,0.3413 1.2799,0.512 2.0479,0.512zM106.279,32v-17.12c0,-1.2373 0.267,-2.3253 0.8,-3.264c0.533,-0.96 1.291,-1.71733 2.272,-2.272c0.981,-0.55467 2.133,-0.832 3.456,-0.832c1.003,0 1.867,0.17067 2.592,0.512c0.725,0.34133 1.376,0.81067 1.952,1.408l-2.656,2.688c-0.235,-0.2347 -0.491,-0.416 -0.768,-0.544c-0.277,-0.128 -0.629,-0.192 -1.056,-0.192c-0.768,0 -1.365,0.2133 -1.792,0.64c-0.405,0.4053 -0.608,0.992 -0.608,1.76v17.216zM102.695,20.224v-3.68h12.352v3.68zM119.003,32v-21.888h4.192v21.888zM115.387,20.224v-3.68h11.424v3.68z" fill-rule="nonzero" fill="rgb(44, 41, 108)" fill-opacity="1" style="mix-blend-mode:normal"></path></g></g></g></g></g><g id="mo2w35f6tfzlu25y_translate"><g transform="matrix(1,0,0,1,0,13)"><g id="mo2w35f6tfzlu25y" opacity="1" style="mix-blend-mode:normal"><g><g><path id="mo2w35f6tfzlu25y_fill_path" d="M10,0h66c5.52285,0 10,4.47715 10,10v0c0,5.52285 -4.47715,10 -10,10h-66c-5.52285,0 -10,-4.47715 -10,-10v0c0,-5.52285 4.47715,-10 10,-10z" fill-rule="nonzero" fill="rgb(233, 232, 255)" fill-opacity="0" style="mix-blend-mode:normal"></path></g></g></g></g></g><g id="mo2w35fb8bnwqig9_translate"><g transform="matrix(1,0,0,1,11,14)"><g id="mo2w35fb8bnwqig9" opacity="1" style="mix-blend-mode:normal"><g><g><path id="mo2w35fb8bnwqig9_fill_path" d="M1.064,14v-9.8h1.12l4.074,6.706h-0.728l4.074,-6.706h1.12v9.8h-1.61v-6.972l0.364,0.098l-3.024,4.97h-1.12l-3.024,-4.97l0.364,-0.098v6.972zM15.4532,14.14c-0.6067,0 -1.1574,-0.154 -1.652,-0.462c-0.4854,-0.308 -0.8727,-0.7233 -1.162,-1.246c-0.28,-0.532 -0.42,-1.1247 -0.42,-1.778c0,-0.66267 0.14,-1.25533 0.42,-1.778c0.2893,-0.532 0.6766,-0.952 1.162,-1.26c0.4946,-0.31733 1.0453,-0.476 1.652,-0.476c0.5133,0 0.966,0.112 1.358,0.336c0.4013,0.21467 0.7186,0.51333 0.952,0.896c0.2333,0.38267 0.35,0.81667 0.35,1.302v1.932c0,0.4853 -0.1167,0.9193 -0.35,1.302c-0.224,0.3827 -0.5367,0.686 -0.938,0.91c-0.4014,0.2147 -0.8587,0.322 -1.372,0.322zM15.7052,12.684c0.5693,0 1.0266,-0.1913 1.372,-0.574c0.3546,-0.3827 0.532,-0.8727 0.532,-1.47c0,-0.4013 -0.0794,-0.756 -0.238,-1.064c-0.1587,-0.308 -0.3827,-0.546 -0.672,-0.714c-0.28,-0.17733 -0.6114,-0.266 -0.994,-0.266c-0.3734,0 -0.7047,0.08867 -0.994,0.266c-0.28,0.168 -0.504,0.406 -0.672,0.714c-0.1587,0.308 -0.238,0.6627 -0.238,1.064c0,0.4013 0.0793,0.756 0.238,1.064c0.168,0.308 0.392,0.5507 0.672,0.728c0.2893,0.168 0.6206,0.252 0.994,0.252zM17.5112,14v-1.806l0.266,-1.638l-0.266,-1.624v-1.652h1.54v6.72zM21.7822,14v-9.52h1.5401v9.52zM20.1723,8.68v-1.4h4.76v1.4zM28.9819,14.14c-0.672,0 -1.2787,-0.1493 -1.82,-0.448c-0.532,-0.308 -0.9567,-0.728 -1.274,-1.26c-0.308,-0.532 -0.462,-1.1293 -0.462,-1.792c0,-0.66267 0.154,-1.25533 0.462,-1.778c0.308,-0.532 0.7233,-0.952 1.246,-1.26c0.532,-0.308 1.12,-0.462 1.764,-0.462c0.6253,0 1.176,0.14467 1.652,0.434c0.4853,0.28933 0.8633,0.686 1.134,1.19c0.28,0.504 0.42,1.078 0.42,1.722c0,0.112 -0.0094,0.2287 -0.028,0.35c-0.0094,0.112 -0.028,0.238 -0.056,0.378h-5.516v-1.26h4.718l-0.574,0.504c-0.0187,-0.4107 -0.098,-0.756 -0.238,-1.036c-0.14,-0.28 -0.3407,-0.49467 -0.602,-0.644c-0.252,-0.14933 -0.5647,-0.224 -0.938,-0.224c-0.392,0 -0.7327,0.084 -1.022,0.252c-0.2894,0.168 -0.5134,0.406 -0.672,0.714c-0.1587,0.29867 -0.238,0.658 -0.238,1.078c0,0.42 0.084,0.7887 0.252,1.106c0.168,0.3173 0.406,0.5647 0.714,0.742c0.308,0.168 0.6626,0.252 1.064,0.252c0.3453,0 0.6626,-0.0607 0.952,-0.182c0.2986,-0.1213 0.5506,-0.2987 0.756,-0.532l0.98,0.994c-0.3267,0.3827 -0.7234,0.672 -1.19,0.868c-0.4667,0.196 -0.9614,0.294 -1.484,0.294zM33.3384,14v-6.72h1.54v6.72zM34.8784,10.262l-0.532,-0.266c0,-0.84933 0.1866,-1.53533 0.56,-2.058c0.3826,-0.532 0.9566,-0.798 1.722,-0.798c0.336,0 0.6393,0.06067 0.91,0.182c0.2706,0.12133 0.5226,0.31733 0.756,0.588l-1.008,1.036c-0.1214,-0.13067 -0.2567,-0.224 -0.406,-0.28c-0.1494,-0.056 -0.322,-0.084 -0.518,-0.084c-0.4294,0 -0.784,0.13533 -1.064,0.406c-0.28,0.27067 -0.42,0.69533 -0.42,1.274zM39.0535,14v-6.72h1.54v6.72zM39.8235,6.048c-0.2613,0 -0.4806,-0.08867 -0.658,-0.266c-0.168,-0.17733 -0.252,-0.39667 -0.252,-0.658c0,-0.26133 0.084,-0.48067 0.252,-0.658c0.1774,-0.17733 0.3967,-0.266 0.658,-0.266c0.2707,0 0.49,0.08867 0.658,0.266c0.168,0.17733 0.252,0.39667 0.252,0.658c0,0.26133 -0.084,0.48067 -0.252,0.658c-0.168,0.17733 -0.3873,0.266 -0.658,0.266zM45.1348,14.14c-0.6067,0 -1.1573,-0.154 -1.652,-0.462c-0.4853,-0.308 -0.8727,-0.7233 -1.162,-1.246c-0.28,-0.532 -0.42,-1.1247 -0.42,-1.778c0,-0.66267 0.14,-1.25533 0.42,-1.778c0.2893,-0.532 0.6767,-0.952 1.162,-1.26c0.4947,-0.31733 1.0453,-0.476 1.652,-0.476c0.5133,0 0.966,0.112 1.358,0.336c0.4013,0.21467 0.7187,0.51333 0.952,0.896c0.2333,0.38267 0.35,0.81667 0.35,1.302v1.932c0,0.4853 -0.1167,0.9193 -0.35,1.302c-0.224,0.3827 -0.5367,0.686 -0.938,0.91c-0.4013,0.2147 -0.8587,0.322 -1.372,0.322zM45.3868,12.684c0.5693,0 1.0267,-0.1913 1.372,-0.574c0.3547,-0.3827 0.532,-0.8727 0.532,-1.47c0,-0.4013 -0.0793,-0.756 -0.238,-1.064c-0.1587,-0.308 -0.3827,-0.546 -0.672,-0.714c-0.28,-0.17733 -0.6113,-0.266 -0.994,-0.266c-0.3733,0 -0.7047,0.08867 -0.994,0.266c-0.28,0.168 -0.504,0.406 -0.672,0.714c-0.1587,0.308 -0.238,0.6627 -0.238,1.064c0,0.4013 0.0793,0.756 0.238,1.064c0.168,0.308 0.392,0.5507 0.672,0.728c0.2893,0.168 0.6207,0.252 0.994,0.252zM47.1928,14v-1.806l0.266,-1.638l-0.266,-1.624v-1.652h1.54v6.72zM50.4419,14v-10.08h1.54v10.08zM59.0885,14.14c-0.6533,0 -1.246,-0.1167 -1.778,-0.35c-0.5226,-0.2427 -0.966,-0.5927 -1.33,-1.05l1.092,-1.092c0.196,0.2987 0.4714,0.5367 0.826,0.714c0.3547,0.1773 0.742,0.266 1.162,0.266c0.4014,0 0.7467,-0.0747 1.036,-0.224c0.2894,-0.1493 0.5134,-0.3593 0.672,-0.63c0.168,-0.2707 0.252,-0.5833 0.252,-0.938c0,-0.3733 -0.084,-0.6907 -0.252,-0.952c-0.1586,-0.26133 -0.392,-0.462 -0.7,-0.602c-0.2986,-0.14933 -0.6626,-0.224 -1.092,-0.224c-0.168,0 -0.3406,0.014 -0.518,0.042c-0.1773,0.01867 -0.336,0.05133 -0.476,0.098l0.714,-0.924c0.196,-0.07467 0.4014,-0.13533 0.616,-0.182c0.224,-0.056 0.4387,-0.084 0.644,-0.084c0.504,0 0.9567,0.12133 1.358,0.364c0.4107,0.24267 0.7327,0.58333 0.966,1.022c0.2427,0.42933 0.364,0.938 0.364,1.526c0,0.6347 -0.1493,1.1947 -0.448,1.68c-0.2986,0.4853 -0.714,0.8633 -1.246,1.134c-0.532,0.2707 -1.1526,0.406 -1.862,0.406zM57.9825,9.198v-0.952l2.618,-3.052l1.932,-0.042l-2.73,3.136zM56.4705,5.642v-1.442h6.062v0.952l-1.386,0.49z" fill-rule="nonzero" fill="rgb(97, 91, 236)" fill-opacity="0" style="mix-blend-mode:normal"></path></g></g></g></g></g></g></g></g></g></g><animate href="#mo2w35f6tfzlu25y_fill_path" attributeName="fill" values="rgb(233, 232, 255;rgb(233, 232, 255;rgb(233, 232, 255" dur="5s" repeatCount="indefinite" keyTimes="0;0.2;1" fill="freeze"></animate><animate href="#mo2w35f6tfzlu25y_fill_path" attributeName="fill-opacity" values="0;1;1" dur="5s" repeatCount="indefinite" keyTimes="0;0.2;1" fill="freeze"></animate><animateTransform href="#mo2w35f6tfzlu25y_translate" attributeName="transform" type="translate" values="0 0;0 23;0 23" dur="5s" repeatCount="indefinite" calcMode="spline" keyTimes="0;0.2;1" keySplines="0.05 0.7 0.1 1;0.5 0.35 0.1 1" additive="sum" fill="freeze"></animateTransform><animate href="#mo2w35fb8bnwqig9_fill_path" attributeName="fill" values="rgb(97, 91, 236;rgb(97, 91, 236;rgb(97, 91, 236" dur="5s" repeatCount="indefinite" keyTimes="0;0.2;1" fill="freeze"></animate><animate href="#mo2w35fb8bnwqig9_fill_path" attributeName="fill-opacity" values="0;1;1" dur="5s" repeatCount="indefinite" keyTimes="0;0.2;1" fill="freeze"></animate><animateTransform href="#mo2w35fb8bnwqig9_translate" attributeName="transform" type="translate" values="0 0;0 23;0 23" dur="5s" repeatCount="indefinite" calcMode="spline" keyTimes="0;0.2;1" keySplines="0.05 0.7 0.1 1;0.5 0.35 0.1 1" additive="sum" fill="freeze"></animateTransform></svg>